<?xml version="1.0" encoding="UTF-8"?>
<!DOCTYPE svg PUBLIC "-//W3C//DTD SVG 1.1//EN" "http://www.w3.org/Graphics/SVG/1.1/DTD/svg11.dtd">
<svg version="1.1" xmlns="http://www.w3.org/2000/svg" xmlns:xlink="http://www.w3.org/1999/xlink" x="0" y="0" width="189" height="51" viewBox="0, 0, 189, 51">
  <g id="Canvas">
    <g id="g">
      <path d="M37.194,3.154 C37.219,3.742 37.071,4.324 36.768,4.826 C36.465,5.329 36.022,5.73 35.493,5.979 C34.964,6.227 34.374,6.312 33.798,6.222 C33.222,6.132 32.685,5.872 32.255,5.474 C31.825,5.076 31.522,4.559 31.384,3.988 C31.246,3.416 31.279,2.816 31.479,2.264 C31.679,1.711 32.037,1.231 32.508,0.884 C32.978,0.536 33.541,0.338 34.123,0.313 C34.904,0.279 35.666,0.56 36.241,1.093 C36.817,1.625 37.16,2.367 37.194,3.154 z" fill="#767677" id="path7_fill"/>
      <path d="M20.005,38.114 C12.155,38.114 5.299,35.238 1.74,30.98 C3.065,34.8 5.536,38.111 8.809,40.453 C12.082,42.795 15.996,44.053 20.009,44.053 C24.022,44.053 27.936,42.795 31.209,40.453 C34.482,38.111 36.953,34.8 38.278,30.98 C34.71,35.238 27.855,38.114 20.005,38.114 z" fill="#F37726" id="path8_fill"/>
      <path d="M20.003,10.419 C27.854,10.419 34.709,13.296 38.268,17.553 C36.943,13.733 34.472,10.423 31.199,8.08 C27.926,5.738 24.012,4.48 19.999,4.48 C15.986,4.48 12.072,5.738 8.799,8.08 C5.526,10.423 3.055,13.733 1.73,17.553 C5.297,13.305 12.153,10.419 20.003,10.419 z" fill="#F37726" id="path9_fill"/>
      <path d="M9.228,46.393 C9.26,47.134 9.074,47.868 8.692,48.502 C8.31,49.136 7.751,49.642 7.084,49.955 C6.417,50.268 5.674,50.374 4.947,50.261 C4.22,50.147 3.543,49.819 3.002,49.317 C2.46,48.815 2.079,48.163 1.905,47.442 C1.731,46.721 1.774,45.965 2.027,45.269 C2.28,44.572 2.732,43.967 3.326,43.53 C3.92,43.093 4.629,42.843 5.364,42.813 C6.347,42.773 7.305,43.127 8.03,43.798 C8.754,44.469 9.185,45.402 9.228,46.393 L9.228,46.393 z" fill="#989798" id="path10_fill"/>
      <path d="M2.635,9.456 C2.204,9.475 1.777,9.364 1.408,9.138 C1.039,8.912 0.745,8.581 0.563,8.187 C0.381,7.792 0.32,7.352 0.386,6.922 C0.452,6.492 0.643,6.091 0.935,5.771 C1.227,5.451 1.607,5.225 2.026,5.122 C2.446,5.019 2.886,5.045 3.291,5.194 C3.696,5.344 4.048,5.612 4.302,5.963 C4.557,6.315 4.702,6.734 4.719,7.169 C4.743,7.751 4.537,8.319 4.146,8.747 C3.755,9.176 3.212,9.431 2.635,9.456 L2.635,9.456 z" fill="#6F7070" id="path11_fill"/>
    </g>
    <g>
      <path d="M64.946,7.46 L64.946,20.465 L64.856,20.465 C63.866,18.755 61.661,17.18 58.286,17.18 C53.021,17.18 48.476,21.59 48.521,28.835 C48.521,35.45 52.616,39.905 57.881,39.905 C61.436,39.905 64.046,38.06 65.216,35.63 L65.351,35.63 L65.531,39.41 L69.041,39.41 C68.951,37.925 68.861,35.72 68.861,33.785 L68.861,7.46 z M64.946,30.275 C64.946,30.905 64.901,31.445 64.766,31.985 C64.046,34.91 61.616,36.71 58.961,36.71 C54.731,36.71 52.526,33.065 52.526,28.655 C52.526,23.885 54.956,20.285 59.051,20.285 C62.021,20.285 64.181,22.355 64.766,24.83 C64.901,25.325 64.946,26 64.946,26.495 z" fill="#4E4E4E"/>
      <path d="M90.776,26.045 C90.776,21.725 89.156,17.18 82.496,17.18 C79.751,17.18 77.096,17.945 75.296,19.07 L76.196,21.725 C77.726,20.69 79.841,20.105 81.911,20.105 C86.366,20.06 86.861,23.345 86.861,25.1 L86.861,25.55 C78.446,25.505 73.766,28.385 73.766,33.65 C73.766,36.8 76.016,39.905 80.426,39.905 C83.531,39.905 85.871,38.375 87.086,36.665 L87.221,36.665 L87.536,39.41 L91.091,39.41 C90.866,37.925 90.776,36.08 90.776,34.19 z M86.951,32.075 C86.951,32.435 86.906,32.885 86.771,33.335 C86.141,35.18 84.296,36.98 81.416,36.98 C79.436,36.98 77.726,35.81 77.726,33.2 C77.726,28.97 82.631,28.205 86.951,28.295 z" fill="#4E4E4E"/>
      <path d="M97.886,13.58 L97.886,17.63 L94.511,17.63 L94.511,20.645 L97.886,20.645 L97.886,32.525 C97.886,35.09 98.336,37.025 99.416,38.24 C100.361,39.275 101.846,39.905 103.691,39.905 C105.221,39.905 106.436,39.635 107.201,39.365 L107.021,36.35 C106.436,36.53 105.806,36.62 104.726,36.62 C102.521,36.62 101.756,35.09 101.756,32.39 L101.756,20.645 L107.426,20.645 L107.426,17.63 L101.756,17.63 L101.756,12.41 z" fill="#4E4E4E"/>
      <path d="M127.181,26.045 C127.181,21.725 125.561,17.18 118.901,17.18 C116.156,17.18 113.501,17.945 111.701,19.07 L112.601,21.725 C114.131,20.69 116.246,20.105 118.316,20.105 C122.771,20.06 123.266,23.345 123.266,25.1 L123.266,25.55 C114.851,25.505 110.171,28.385 110.171,33.65 C110.171,36.8 112.421,39.905 116.831,39.905 C119.936,39.905 122.276,38.375 123.491,36.665 L123.626,36.665 L123.941,39.41 L127.496,39.41 C127.271,37.925 127.181,36.08 127.181,34.19 z M123.356,32.075 C123.356,32.435 123.311,32.885 123.176,33.335 C122.546,35.18 120.701,36.98 117.821,36.98 C115.841,36.98 114.131,35.81 114.131,33.2 C114.131,28.97 119.036,28.205 123.356,28.295 z" fill="#4E4E4E"/>
      <path d="M133.571,39.41 L137.531,39.41 L137.531,7.46 L133.571,7.46 z" fill="#4E4E4E"/>
      <path d="M159.491,26.045 C159.491,21.725 157.871,17.18 151.211,17.18 C148.466,17.18 145.811,17.945 144.011,19.07 L144.911,21.725 C146.441,20.69 148.556,20.105 150.626,20.105 C155.081,20.06 155.576,23.345 155.576,25.1 L155.576,25.55 C147.161,25.505 142.481,28.385 142.481,33.65 C142.481,36.8 144.731,39.905 149.141,39.905 C152.246,39.905 154.586,38.375 155.801,36.665 L155.936,36.665 L156.251,39.41 L159.806,39.41 C159.581,37.925 159.491,36.08 159.491,34.19 z M155.666,32.075 C155.666,32.435 155.621,32.885 155.486,33.335 C154.856,35.18 153.011,36.98 150.131,36.98 C148.151,36.98 146.441,35.81 146.441,33.2 C146.441,28.97 151.346,28.205 155.666,28.295 z" fill="#4E4E4E"/>
      <path d="M165.881,33.785 C165.881,35.72 165.791,37.925 165.701,39.41 L169.076,39.41 L169.301,35.855 L169.391,35.855 C171.056,38.69 173.576,39.905 176.726,39.905 C181.586,39.905 186.536,36.035 186.536,28.25 C186.536,21.68 182.756,17.18 177.311,17.18 C173.801,17.18 171.281,18.71 169.886,21.14 L169.796,21.14 L169.796,7.46 L165.881,7.46 z M169.796,26.81 C169.796,26.18 169.886,25.64 170.021,25.145 C170.831,22.175 173.351,20.285 176.006,20.285 C180.281,20.285 182.531,24.02 182.531,28.385 C182.531,33.38 180.101,36.755 175.916,36.755 C173.036,36.755 170.696,34.865 169.976,32.12 C169.841,31.67 169.796,31.175 169.796,30.68 z" fill="#4E4E4E"/>
    </g>
  </g>
</svg>
