<?xml version="1.0" encoding="UTF-8"?>
<!DOCTYPE svg PUBLIC "-//W3C//DTD SVG 1.1//EN" "http://www.w3.org/Graphics/SVG/1.1/DTD/svg11.dtd">
<svg version="1.1" xmlns="http://www.w3.org/2000/svg" xmlns:xlink="http://www.w3.org/1999/xlink" x="0" y="0" width="189" height="51" viewBox="0, 0, 189, 51">
  <g id="Canvas">
    <g id="g">
      <path d="M37.194,3.154 C37.219,3.742 37.071,4.324 36.768,4.826 C36.465,5.329 36.022,5.73 35.493,5.979 C34.964,6.227 34.374,6.312 33.798,6.222 C33.222,6.132 32.685,5.872 32.255,5.474 C31.825,5.076 31.522,4.559 31.384,3.988 C31.246,3.416 31.279,2.816 31.479,2.264 C31.679,1.711 32.037,1.231 32.508,0.884 C32.978,0.536 33.541,0.338 34.123,0.313 C34.904,0.279 35.666,0.56 36.241,1.093 C36.817,1.625 37.16,2.367 37.194,3.154 z" fill="#767677" id="path7_fill"/>
      <path d="M20.005,38.114 C12.155,38.114 5.299,35.238 1.74,30.98 C3.065,34.8 5.536,38.111 8.809,40.453 C12.082,42.795 15.996,44.053 20.009,44.053 C24.022,44.053 27.936,42.795 31.209,40.453 C34.482,38.111 36.953,34.8 38.278,30.98 C34.71,35.238 27.855,38.114 20.005,38.114 z" fill="#F37726" id="path8_fill"/>
      <path d="M20.003,10.419 C27.854,10.419 34.709,13.296 38.268,17.553 C36.943,13.733 34.472,10.423 31.199,8.08 C27.926,5.738 24.012,4.48 19.999,4.48 C15.986,4.48 12.072,5.738 8.799,8.08 C5.526,10.423 3.055,13.733 1.73,17.553 C5.297,13.305 12.153,10.419 20.003,10.419 z" fill="#F37726" id="path9_fill"/>
      <path d="M9.228,46.393 C9.26,47.134 9.074,47.868 8.692,48.502 C8.31,49.136 7.751,49.642 7.084,49.955 C6.417,50.268 5.674,50.374 4.947,50.261 C4.22,50.147 3.543,49.819 3.002,49.317 C2.46,48.815 2.079,48.163 1.905,47.442 C1.731,46.721 1.774,45.965 2.027,45.269 C2.28,44.572 2.732,43.967 3.326,43.53 C3.92,43.093 4.629,42.843 5.364,42.813 C6.347,42.773 7.305,43.127 8.03,43.798 C8.754,44.469 9.185,45.402 9.228,46.393 L9.228,46.393 z" fill="#989798" id="path10_fill"/>
      <path d="M2.635,9.456 C2.204,9.475 1.777,9.364 1.408,9.138 C1.039,8.912 0.745,8.581 0.563,8.187 C0.381,7.792 0.32,7.352 0.386,6.922 C0.452,6.492 0.643,6.091 0.935,5.771 C1.227,5.451 1.607,5.225 2.026,5.122 C2.446,5.019 2.886,5.045 3.291,5.194 C3.696,5.344 4.048,5.612 4.302,5.963 C4.557,6.315 4.702,6.734 4.719,7.169 C4.743,7.751 4.537,8.319 4.146,8.747 C3.755,9.176 3.212,9.431 2.635,9.456 L2.635,9.456 z" fill="#6F7070" id="path11_fill"/>
    </g>
    <g>
      <path d="M64.946,9.085 L64.946,22.09 L64.856,22.09 C63.866,20.38 61.661,18.805 58.286,18.805 C53.021,18.805 48.476,23.215 48.521,30.46 C48.521,37.075 52.616,41.53 57.881,41.53 C61.436,41.53 64.046,39.685 65.216,37.255 L65.351,37.255 L65.531,41.035 L69.041,41.035 C68.951,39.55 68.861,37.345 68.861,35.41 L68.861,9.085 z M64.946,31.9 C64.946,32.53 64.901,33.07 64.766,33.61 C64.046,36.535 61.616,38.335 58.961,38.335 C54.731,38.335 52.526,34.69 52.526,30.28 C52.526,25.51 54.956,21.91 59.051,21.91 C62.021,21.91 64.181,23.98 64.766,26.455 C64.901,26.95 64.946,27.625 64.946,28.12 z" fill="#4E4E4E"/>
      <path d="M90.776,27.67 C90.776,23.35 89.156,18.805 82.496,18.805 C79.751,18.805 77.096,19.57 75.296,20.695 L76.196,23.35 C77.726,22.315 79.841,21.73 81.911,21.73 C86.366,21.685 86.861,24.97 86.861,26.725 L86.861,27.175 C78.446,27.13 73.766,30.01 73.766,35.275 C73.766,38.425 76.016,41.53 80.426,41.53 C83.531,41.53 85.871,40 87.086,38.29 L87.221,38.29 L87.536,41.035 L91.091,41.035 C90.866,39.55 90.776,37.705 90.776,35.815 z M86.951,33.7 C86.951,34.06 86.906,34.51 86.771,34.96 C86.141,36.805 84.296,38.605 81.416,38.605 C79.436,38.605 77.726,37.435 77.726,34.825 C77.726,30.595 82.631,29.83 86.951,29.92 z" fill="#4E4E4E"/>
      <path d="M97.886,15.205 L97.886,19.255 L94.511,19.255 L94.511,22.27 L97.886,22.27 L97.886,34.15 C97.886,36.715 98.336,38.65 99.416,39.865 C100.361,40.9 101.846,41.53 103.691,41.53 C105.221,41.53 106.436,41.26 107.201,40.99 L107.021,37.975 C106.436,38.155 105.806,38.245 104.726,38.245 C102.521,38.245 101.756,36.715 101.756,34.015 L101.756,22.27 L107.426,22.27 L107.426,19.255 L101.756,19.255 L101.756,14.035 z" fill="#4E4E4E"/>
      <path d="M127.181,27.67 C127.181,23.35 125.561,18.805 118.901,18.805 C116.156,18.805 113.501,19.57 111.701,20.695 L112.601,23.35 C114.131,22.315 116.246,21.73 118.316,21.73 C122.771,21.685 123.266,24.97 123.266,26.725 L123.266,27.175 C114.851,27.13 110.171,30.01 110.171,35.275 C110.171,38.425 112.421,41.53 116.831,41.53 C119.936,41.53 122.276,40 123.491,38.29 L123.626,38.29 L123.941,41.035 L127.496,41.035 C127.271,39.55 127.181,37.705 127.181,35.815 z M123.356,33.7 C123.356,34.06 123.311,34.51 123.176,34.96 C122.546,36.805 120.701,38.605 117.821,38.605 C115.841,38.605 114.131,37.435 114.131,34.825 C114.131,30.595 119.036,29.83 123.356,29.92 z" fill="#4E4E4E"/>
      <path d="M133.571,41.035 L137.531,41.035 L137.531,9.085 L133.571,9.085 z" fill="#4E4E4E"/>
      <path d="M159.491,27.67 C159.491,23.35 157.871,18.805 151.211,18.805 C148.466,18.805 145.811,19.57 144.011,20.695 L144.911,23.35 C146.441,22.315 148.556,21.73 150.626,21.73 C155.081,21.685 155.576,24.97 155.576,26.725 L155.576,27.175 C147.161,27.13 142.481,30.01 142.481,35.275 C142.481,38.425 144.731,41.53 149.141,41.53 C152.246,41.53 154.586,40 155.801,38.29 L155.936,38.29 L156.251,41.035 L159.806,41.035 C159.581,39.55 159.491,37.705 159.491,35.815 z M155.666,33.7 C155.666,34.06 155.621,34.51 155.486,34.96 C154.856,36.805 153.011,38.605 150.131,38.605 C148.151,38.605 146.441,37.435 146.441,34.825 C146.441,30.595 151.346,29.83 155.666,29.92 z" fill="#4E4E4E"/>
      <path d="M165.881,35.41 C165.881,37.345 165.791,39.55 165.701,41.035 L169.076,41.035 L169.301,37.48 L169.391,37.48 C171.056,40.315 173.576,41.53 176.726,41.53 C181.586,41.53 186.536,37.66 186.536,29.875 C186.536,23.305 182.756,18.805 177.311,18.805 C173.801,18.805 171.281,20.335 169.886,22.765 L169.796,22.765 L169.796,9.085 L165.881,9.085 z M169.796,28.435 C169.796,27.805 169.886,27.265 170.021,26.77 C170.831,23.8 173.351,21.91 176.006,21.91 C180.281,21.91 182.531,25.645 182.531,30.01 C182.531,35.005 180.101,38.38 175.916,38.38 C173.036,38.38 170.696,36.49 169.976,33.745 C169.841,33.295 169.796,32.8 169.796,32.305 z" fill="#4E4E4E"/>
    </g>
  </g>
</svg>
